<?xml version="1.0" standalone="no"?>
<!DOCTYPE svg PUBLIC "-//W3C//DTD SVG 20010904//EN"
 "http://www.w3.org/TR/2001/REC-SVG-20010904/DTD/svg10.dtd">
<svg version="1.0" xmlns="http://www.w3.org/2000/svg"
 width="16.000000pt" height="16.000000pt" viewBox="0 0 16.000000 16.000000"
 preserveAspectRatio="xMidYMid meet">
<metadata>
Created by potrace 1.11, written by Peter Selinger 2001-2013
</metadata>
<g transform="translate(0.000000,16.000000) scale(0.003200,-0.003200)"
fill="#000000" stroke="none">
<path d="M1229 4946 c-2 -2 -26 -6 -54 -9 -181 -20 -372 -91 -540 -201 -295
-193 -512 -514 -571 -846 -3 -14 -7 -31 -9 -38 -2 -6 -7 -47 -11 -90 -9 -105
-9 -2449 0 -2537 31 -302 163 -581 376 -795 106 -107 185 -166 313 -235 75
-40 220 -100 267 -110 8 -2 35 -8 60 -14 54 -12 87 -18 160 -26 61 -8 2543 -9
2576 -1 12 2 44 7 73 11 103 13 261 65 381 125 397 197 672 598 717 1040 8 84
8 2489 0 2555 -48 376 -223 685 -516 909 -134 103 -313 188 -473 226 -45 10
-96 23 -113 27 -30 7 -2628 17 -2636 9z"/>
</g>
</svg>
