<svg xmlns="http://www.w3.org/2000/svg" width="137.5" height="200" viewBox="0 0 27.5 40"><defs><style>.cls-1{fill:#0d0d0d;fill-rule:evenodd}</style></defs><path id="bulb" class="cls-1" d="M513 1438a13.746 13.746 0 0 0-13.75 13.75c0 5.04 4.61 10.38 6.289 15.07 2.5 6.99 2.226 11.18 7.461 11.18 5.312 0 4.956-4.17 7.461-11.15 1.684-4.7 6.289-10.1 6.289-15.1A13.746 13.746 0 0 0 513 1438zm3.241 33.97l-6.2.77a56.62 56.62 0 0 1-.747-2.36.329.329 0 0 0-.011-.04l7.736-.97c-.11.37-.229.76-.33 1.11-.163.56-.31 1.05-.448 1.49zm-7.321-2.84c-.227-.75-.483-1.54-.769-2.38h9.707c-.152.45-.306.9-.439 1.32zm4.08 6.37a2.178 2.178 0 0 1-2.5-1.56l5.3-.67c-.765 2.07-1.324 2.23-2.8 2.23zm5.84-11.25h-11.666c-.623-1.35-1.37-2.7-2.107-4.02-1.631-2.92-3.317-5.94-3.317-8.48a11.25 11.25 0 0 1 22.5 0c0 2.52-1.687 5.56-3.319 8.49-.731 1.32-1.472 2.67-2.091 4.01zm-5.84-20a7.505 7.505 0 0 0-7.5 7.5.625.625 0 0 0 1.25 0 6.255 6.255 0 0 1 6.25-6.25.625.625 0 1 0 0-1.25z" transform="translate(-499.25 -1438)"/></svg>