<svg xmlns="http://www.w3.org/2000/svg" width="606.7" height="430" viewBox="0 0 121.34 86"><defs><style>.cls-1{fill:#fff;fill-rule:evenodd}</style></defs><path id="LOGO" class="cls-1" d="M991.05 72.35a29.5 29.5 0 0 0 6.739-3.713 9.382 9.382 0 0 0 2.461-2.959 4.612 4.612 0 0 0 .55-2.742 1.53 1.53 0 0 0-1.692-1.534q-1.414 0-3.979 3.18a20.107 20.107 0 0 0-2.166 3.453 35.955 35.955 0 0 0-1.913 4.315zm43.52 6.625a7.665 7.665 0 0 1-2.55.439 4.736 4.736 0 0 1-2.63-.714 3.1 3.1 0 0 1-1.35-2.139 6.08 6.08 0 0 1 .6-3.838c.65-1.315 1.34-2.588 2.02-3.838.55-1.012 1.1-1.976 1.67-2.85s1.1-1.715 1.54-2.523a1.874 1.874 0 0 0 .21-.877.72.72 0 0 0-.49-.659 1.694 1.694 0 0 0-1.2 0 7.217 7.217 0 0 0-1.46.659 32.729 32.729 0 0 0-3.16 2.139 41.06 41.06 0 0 0-3.91 3.456c-.97.961-1.85 1.829-2.59 2.633s-1.48 1.588-2.23 2.356l-2.28 2.359-2.54 2.632a3.446 3.446 0 0 1-2.58.987 3.84 3.84 0 0 1-1.7-.275c-.33-.181-.37-.672-.15-1.479a30.1 30.1 0 0 1 1.16-3.346c.6-1.5 1.2-2.828 1.76-4 .38-.8.86-1.755 1.45-2.85.4-.74 2.41-4.063 1.74-4.715-.85-.837-2.68.848-3.39 1.424-6.93 5.619-9.29 15.795-20.37 15.795-3.984 0-6.259-1.469-6.869-4.388a7.11 7.11 0 0 1-.1-.571 34.708 34.708 0 0 1-6.585.463l.041-.045c-3.534 4.017-8.972 5.424-14.517 5.424-3.753 0-8.378-.688-9.475-4.821-.842-3.168 1.712-5.961 6.437-5.961 3.546 0 12.588 3.486 12.377 3.842-.13.218-.416.659-.595.909-2.6-.561-14.705-5.069-14.386 1.872.1 2.15 3.258 3.175 5.392 3.175a9.8 9.8 0 0 0 4.976-1.374 12.762 12.762 0 0 0 4.018-3.673 14.916 14.916 0 0 0 2.349-5.319 15.4 15.4 0 0 0 .06-6.417 8.366 8.366 0 0 0-1.387-3.344 8.832 8.832 0 0 0-2.242-2.194 8.389 8.389 0 0 0-2.464-1.15 4.57 4.57 0 0 0-1.958-.219c-1 .207-4.655.858-4.732-.549-.076-1.456 3.986-.675 4.891-.548a9.831 9.831 0 0 0 5.836-3.346 9.237 9.237 0 0 0 2.4-6.636q-.083-5.481-4.36-7.785c-4.761 6.449-7.514 12.166-11.065 19.413-3.043 6.279-6.849 12.742-11.765 17.711-4.433 4.476-9.919 7.513-16.3 7.513-6.1 0-11.958-1.732-13.629-8.335-2.382-9.425 5.107-19.25 11.579-25.115A54.729 54.729 0 0 1 965.36 34.9a27.37 27.37 0 0 1 4.321.328C974.908 30.485 981.646 27 988.792 27c9.541 0 12.258 8.933 11.608 9.314-.454 0-2.006-8.436-11.277-8.436-6.842 0-12.134 3.193-16.776 8a16.363 16.363 0 0 1 5.7 3.4 8.038 8.038 0 0 1 2.555 5.591 6.721 6.721 0 0 1-.753 4.115 10.386 10.386 0 0 1-2.688 3.124 13.682 13.682 0 0 1-3.765 2.084 23.327 23.327 0 0 1-3.963 1.1l.03.109a16.743 16.743 0 0 1 8.268 3.472 10.307 10.307 0 0 1 3.689 6 11.424 11.424 0 0 1-.95 7.66 14.406 14.406 0 0 1-1.157 1.821c1.269.249 5.26-.489 5.754-.519a8.5 8.5 0 0 1 1.365-4.959 18.688 18.688 0 0 1 2.743-3.607c1.454-1.5 4.845-4.367 8.5-5.266 2-.492 4.582-.4 5.812.825a3.579 3.579 0 0 1 1.11 2.028 4.2 4.2 0 0 1-1.36 3.838c-2.95 2.852-8.638 5.511-12.455 6.737-.543 2.236.767 4.669 3.222 4.669 7.823 0 12.083-9.5 17.063-14.477 1.85-1.846 6.2-5.369 8.79-2.853a3.412 3.412 0 0 1 1.01 1.644 3.911 3.911 0 0 1-.07 2.085 18.026 18.026 0 0 1-1.02 2.633c-.51 1.1-1.12 2.3-1.8 3.617s-1.2 2.415-1.56 3.29l.14.11 3.6-3.838c1.36-1.463 2.81-2.925 4.32-4.389a36.154 36.154 0 0 1 5.06-4.057A9.616 9.616 0 0 1 1034.82 60c2.47 0 3.86.987 4.12 2.962a5.385 5.385 0 0 1-.79 3.29c-.65 1.168-1.25 2.315-1.86 3.4-.59 1.036-1.12 1.976-1.51 2.851s-.68 1.533-.86 1.974q-.72 1.86.18 2.412a1.427 1.427 0 0 0 1.22.112m-103.544 3.846a12.044 12.044 0 0 0 6.51-1.755c11.392-7.1 19.548-31.464 30.231-42.88-12.16-1.69-27.579 4.694-36.39 12.941-5.2 5.12-9.574 12.016-9.721 19.574-.116 6.115 2.281 12.12 9.37 12.12zm-1.5 14.372a1.023 1.023 0 0 1 .322-.768 1.073 1.073 0 0 1 .782-.316 1.06 1.06 0 0 1 .774.321 1.042 1.042 0 0 1 .323.763 1.075 1.075 0 0 1-.323.78 1.057 1.057 0 0 1-.774.324 1.1 1.1 0 0 1-1.109-1.105zm-1.312 12.937v-.507h1.489v-7.465h-1.4v-.463h.424q.7 0 1.387-.05c.456-.037.891-.083 1.3-.147v8.125h1.292v.507h-4.492zm8.223-1.52v-6.452h-1.244v-.463h1.244v-2.672c.076.011.148.014.231.018s.2.006.349.006c.216 0 .418-.006.6-.024a3.89 3.89 0 0 0 .492-.066v2.738h1.977v.462h-1.977v6.248a1.822 1.822 0 0 0 .178.983.793.793 0 0 0 .668.234 1.09 1.09 0 0 0 .6-.2 2.693 2.693 0 0 0 .6-.6l.357.27a3.466 3.466 0 0 1-1.049 1 2.555 2.555 0 0 1-1.268.3 1.767 1.767 0 0 1-1.327-.436 1.862 1.862 0 0 1-.436-1.347zm11.744-2.893a5.851 5.851 0 0 0-2.841.555 1.746 1.746 0 0 0-.983 1.608 1.633 1.633 0 0 0 .456 1.2 1.661 1.661 0 0 0 1.218.453 2.368 2.368 0 0 0 1.549-.488 1.534 1.534 0 0 0 .6-1.258v-2.074zm.057 3.236a2.971 2.971 0 0 1-1.277 1.051 4.42 4.42 0 0 1-1.847.393 2.762 2.762 0 0 1-1.786-.537 1.754 1.754 0 0 1-.661-1.434 2.6 2.6 0 0 1 1.464-2.325 8.23 8.23 0 0 1 4.05-.873v-2.071a1.072 1.072 0 0 0-.428-.938 2.3 2.3 0 0 0-1.32-.3 2.937 2.937 0 0 0-1.245.246.731.731 0 0 0-.54.509 1.509 1.509 0 0 0 .314.337.934.934 0 0 1 .307.674.923.923 0 0 1-.247.67.857.857 0 0 1-.644.258.869.869 0 0 1-.686-.28 1.1 1.1 0 0 1-.247-.753 1.729 1.729 0 0 1 .98-1.49 4.806 4.806 0 0 1 2.515-.59 3.832 3.832 0 0 1 2.291.513 2.174 2.174 0 0 1 .665 1.823v4.817a1.489 1.489 0 0 0 .1.664.379.379 0 0 0 .346.154.667.667 0 0 0 .489-.221 1.13 1.13 0 0 0 .291-.554h.357a1.816 1.816 0 0 1-.566 1.214 1.772 1.772 0 0 1-1.256.468 1.342 1.342 0 0 1-.992-.355 1.658 1.658 0 0 1-.432-1.071zm5.061 1.177v-.507h1.62V94.092H954v-.443a40.157 40.157 0 0 0 3.449-.221v14.22h1.669v.507h-5.073zm8.72-12.937a1.026 1.026 0 0 1 .322-.768 1.109 1.109 0 0 1 1.556.005 1.039 1.039 0 0 1 .323.763 1.071 1.071 0 0 1-.323.78 1.1 1.1 0 0 1-1.556 0 1.07 1.07 0 0 1-.327-.781zm-1.312 12.937v-.507h1.489v-7.465h-1.4v-.463h.425q.7 0 1.387-.05c.456-.037.891-.083 1.3-.147v8.125h1.292v.507h-4.492zm12.783-4.413a5.865 5.865 0 0 0-2.843.555 1.749 1.749 0 0 0-.981 1.608 1.625 1.625 0 0 0 .457 1.2 1.651 1.651 0 0 0 1.216.453 2.374 2.374 0 0 0 1.549-.488 1.527 1.527 0 0 0 .6-1.258v-2.074zm.057 3.236a2.968 2.968 0 0 1-1.28 1.051 4.4 4.4 0 0 1-1.847.393 2.777 2.777 0 0 1-1.787-.537 1.76 1.76 0 0 1-.658-1.434 2.6 2.6 0 0 1 1.461-2.325 8.264 8.264 0 0 1 4.054-.873v-2.071a1.074 1.074 0 0 0-.427-.938 2.3 2.3 0 0 0-1.323-.3 2.909 2.909 0 0 0-1.241.246.735.735 0 0 0-.543.509 1.581 1.581 0 0 0 .313.337.935.935 0 0 1 .311.674.9.9 0 0 1-.253.67.85.85 0 0 1-.639.258.869.869 0 0 1-.687-.28 1.092 1.092 0 0 1-.247-.753 1.729 1.729 0 0 1 .979-1.49 4.811 4.811 0 0 1 2.515-.59 3.853 3.853 0 0 1 2.294.513 2.188 2.188 0 0 1 .661 1.823v4.817a1.524 1.524 0 0 0 .1.664.389.389 0 0 0 .35.154.653.653 0 0 0 .484-.221 1.11 1.11 0 0 0 .294-.554h.357a1.789 1.789 0 0 1-.57 1.214 1.752 1.752 0 0 1-1.252.468 1.351 1.351 0 0 1-.993-.355 1.631 1.631 0 0 1-.431-1.071zm5.215 1.177v-.507h1.18v-7.465h-1.2v-.463h.4c.45 0 .881-.017 1.3-.05s.813-.083 1.181-.147l.01 2.452a4.03 4.03 0 0 1 1.309-1.833 3.216 3.216 0 0 1 1.983-.619 2.535 2.535 0 0 1 1.816.616 2.252 2.252 0 0 1 .651 1.716v5.793h1.157v.507h-4.119v-.507h1.266v-5.856a1.869 1.869 0 0 0-.337-1.231 1.3 1.3 0 0 0-1.046-.4 2.288 2.288 0 0 0-1.861 1.068 4.3 4.3 0 0 0-.783 2.6v3.815h1.181v.507h-4.091zm16.839 0v-2.849h.532a3.6 3.6 0 0 0 1.132 1.893 2.911 2.911 0 0 0 1.923.671 2.362 2.362 0 0 0 1.547-.487 1.585 1.585 0 0 0 .59-1.272c0-.6-.73-1.036-2.168-1.312-.283-.053-.5-.1-.661-.137a4.958 4.958 0 0 1-2.265-.9 2.071 2.071 0 0 1-.6-1.611 2.469 2.469 0 0 1 .791-1.9 2.919 2.919 0 0 1 2.056-.731 4.021 4.021 0 0 1 1.271.187 2.151 2.151 0 0 1 .87.544l.44-.575h.31v2.451h-.47a2.851 2.851 0 0 0-.85-1.608 2.529 2.529 0 0 0-3-.127 1.355 1.355 0 0 0-.55 1.117q0 .885 2.538 1.338c.275.053.5.09.655.118a3.49 3.49 0 0 1 1.91.858 2.221 2.221 0 0 1 .63 1.674 2.724 2.724 0 0 1-.87 2.132 3.4 3.4 0 0 1-2.376.79 3.26 3.26 0 0 1-1.3-.26 3.512 3.512 0 0 1-1.122-.755l-.514.748h-.445zm10.384-1.52v-6.452h-1.24v-.463h1.24v-2.672c.08.011.15.014.23.018s.2.006.35.006c.22 0 .42-.006.6-.024a3.83 3.83 0 0 0 .49-.066v2.738h1.98v.462h-1.98v6.248a1.8 1.8 0 0 0 .18.983.793.793 0 0 0 .67.234 1.021 1.021 0 0 0 .59-.2 2.6 2.6 0 0 0 .61-.6l.35.27a3.4 3.4 0 0 1-1.05 1 2.542 2.542 0 0 1-1.26.3 1.762 1.762 0 0 1-1.33-.436 1.849 1.849 0 0 1-.435-1.347zm10.1 1.481l-3.27-7.933h-1.04v-.463h4.24v.462h-1.4l2.36 5.633 2.19-5.633h-1.44v-.462h3.12v.462h-1.11l-3.98 10.423a5.924 5.924 0 0 1-1.01 1.823 1.584 1.584 0 0 1-1.2.56 1.3 1.3 0 0 1-.86-.29.951.951 0 0 1-.34-.725.834.834 0 0 1 .25-.627.868.868 0 0 1 1.34.144.864.864 0 0 0 .37.4.6.6 0 0 0 .38-.346 6.541 6.541 0 0 0 .49-1.041zm6.76.039v-.507h1.62V94.092h-1.66v-.443a41.544 41.544 0 0 0 3.45-.221v14.22h1.66v.507h-5.07zm9.52-4.877v.641a5.916 5.916 0 0 0 .57 3.059 2.186 2.186 0 0 0 1.98.868 3.1 3.1 0 0 0 3.15-2.406h.49a3.681 3.681 0 0 1-1.31 2.218 4.7 4.7 0 0 1-5.7-.482 4.05 4.05 0 0 1-1.25-3 4.635 4.635 0 0 1 1.28-3.3 4.135 4.135 0 0 1 3.13-1.35 3.747 3.747 0 0 1 2.72.962 4.269 4.269 0 0 1 1.17 2.793h-6.23zm.07-.619h4.16v-.217a3.219 3.219 0 0 0-.45-1.927 1.727 1.727 0 0 0-1.46-.594 1.968 1.968 0 0 0-1.61.685 3.527 3.527 0 0 0-.645 2.052z" transform="translate(-918 -27)"/></svg>